<svg xmlns="http://www.w3.org/2000/svg" xmlns:xlink="http://www.w3.org/1999/xlink" width="128" height="114.246" viewBox="0 0 128 114.246"><defs><style>.a{fill:#208e00;}.b{fill:#fff;}.c{filter:url(#c);}.d{filter:url(#a);}</style><filter id="a" x="0" y="0" width="128" height="114.246" filterUnits="userSpaceOnUse"><feOffset dy="3" input="SourceAlpha"/><feGaussianBlur stdDeviation="1" result="b"/><feFlood flood-color="#171918"/><feComposite operator="in" in2="b"/><feComposite in="SourceGraphic"/></filter><filter id="c" x="0" y="0" width="128" height="114.246" filterUnits="userSpaceOnUse"><feOffset dy="3" input="SourceAlpha"/><feGaussianBlur stdDeviation="3" result="d"/><feFlood flood-color="#f3ec37" result="e"/><feComposite operator="out" in="SourceGraphic" in2="d"/><feComposite operator="in" in="e"/><feComposite operator="in" in2="SourceGraphic"/></filter></defs><g data-type="innerShadowGroup"><g class="d" transform="matrix(1, 0, 0, 1, 0, 0)"><path class="a" d="M121.844,38.207a24.91,24.91,0,0,0-15.764-26.184,3.048,3.048,0,0,0-3.722,1.251A2.7,2.7,0,0,0,103,16.8c.32.511,1.807,3.331,1.4,11.114-.075,1.442-.274,5.272-8.1,5.273-.856,0-1.642-.052-2.285-.116a44.1,44.1,0,0,0-2.865-4.8,11.953,11.953,0,0,0-10.5-5.379,20.01,20.01,0,0,0-8.121,1.846c-2.7,1.255-9.027,2-11.531,2.216-2.5-.211-8.829-.96-11.531-2.216a20.01,20.01,0,0,0-8.121-1.846,11.953,11.953,0,0,0-10.5,5.379,44.265,44.265,0,0,0-2.865,4.8c-.642.064-1.43.116-2.285.116-7.823,0-8.023-3.831-8.1-5.273-.4-7.783,1.083-10.6,1.4-11.114a2.7,2.7,0,0,0,.643-3.526,3.048,3.048,0,0,0-3.722-1.251A24.911,24.911,0,0,0,.156,38.207c1.115,10.8,5.94,15.141,10.066,16.858-3.341,3.2-6.926,7.476-7.03,11.184a7.95,7.95,0,0,0,1.987,6c1.471,1.513,3.594,2.248,6.49,2.248a27.81,27.81,0,0,0,4.621-.454c4.114-.7,8.179-1.708,10.73-2.39,1.347,3.663,3.921,10.453,6.124,15.059a54.573,54.573,0,0,1,3.82,10.995c-.441,2.684-1.548,12.169,3.679,17.4,4.1,4.1,12.2,4.966,18.268,4.966,1.024,0,1.77-.029,2.088-.044.319.015,1.064.044,2.088.044,6.069,0,14.164-.862,18.269-4.966,5.227-5.227,4.12-14.711,3.679-17.4a54.525,54.525,0,0,1,3.82-10.995c2.2-4.606,4.777-11.4,6.124-15.059,2.551.682,6.616,1.69,10.73,2.39a27.816,27.816,0,0,0,4.622.454c2.9,0,5.019-.735,6.49-2.248a7.951,7.951,0,0,0,1.987-6.005c-.1-3.708-3.688-7.986-7.03-11.184C115.9,53.348,120.729,49.007,121.844,38.207ZM34.33,64.007A7.777,7.777,0,0,1,37.3,57.878a2.908,2.908,0,0,1,3.719.09l7.268,6.353a2.908,2.908,0,0,1,.586,3.673A7.817,7.817,0,0,1,34.33,64.007Zm14.779,48a4.477,4.477,0,0,1-1.63.306c-2.669,0-5-2.32-5.8-5.773-.92-3.967.463-7.644,3.287-8.741A4.474,4.474,0,0,1,46.6,97.5c2.669,0,5,2.32,5.8,5.773C53.316,107.237,51.934,110.913,49.109,112.01Zm31.3-5.466c-.8,3.452-3.131,5.773-5.8,5.773h0a4.5,4.5,0,0,1-1.63-.307c-2.824-1.1-4.206-4.773-3.287-8.741.8-3.452,3.131-5.773,5.8-5.773a4.5,4.5,0,0,1,1.63.306C79.943,98.9,81.325,102.576,80.406,106.544ZM79.85,71.827a7.857,7.857,0,0,1-6.721-3.832,2.907,2.907,0,0,1,.586-3.673l7.268-6.353a2.908,2.908,0,0,1,3.719-.09A7.817,7.817,0,0,1,79.85,71.827Z" transform="translate(3 -11.83)"/></g><g class="c" transform="matrix(1, 0, 0, 1, 0, 0)"><path class="b" d="M121.844,38.207a24.91,24.91,0,0,0-15.764-26.184,3.048,3.048,0,0,0-3.722,1.251A2.7,2.7,0,0,0,103,16.8c.32.511,1.807,3.331,1.4,11.114-.075,1.442-.274,5.272-8.1,5.273-.856,0-1.642-.052-2.285-.116a44.1,44.1,0,0,0-2.865-4.8,11.953,11.953,0,0,0-10.5-5.379,20.01,20.01,0,0,0-8.121,1.846c-2.7,1.255-9.027,2-11.531,2.216-2.5-.211-8.829-.96-11.531-2.216a20.01,20.01,0,0,0-8.121-1.846,11.953,11.953,0,0,0-10.5,5.379,44.265,44.265,0,0,0-2.865,4.8c-.642.064-1.43.116-2.285.116-7.823,0-8.023-3.831-8.1-5.273-.4-7.783,1.083-10.6,1.4-11.114a2.7,2.7,0,0,0,.643-3.526,3.048,3.048,0,0,0-3.722-1.251A24.911,24.911,0,0,0,.156,38.207c1.115,10.8,5.94,15.141,10.066,16.858-3.341,3.2-6.926,7.476-7.03,11.184a7.95,7.95,0,0,0,1.987,6c1.471,1.513,3.594,2.248,6.49,2.248a27.81,27.81,0,0,0,4.621-.454c4.114-.7,8.179-1.708,10.73-2.39,1.347,3.663,3.921,10.453,6.124,15.059a54.573,54.573,0,0,1,3.82,10.995c-.441,2.684-1.548,12.169,3.679,17.4,4.1,4.1,12.2,4.966,18.268,4.966,1.024,0,1.77-.029,2.088-.044.319.015,1.064.044,2.088.044,6.069,0,14.164-.862,18.269-4.966,5.227-5.227,4.12-14.711,3.679-17.4a54.525,54.525,0,0,1,3.82-10.995c2.2-4.606,4.777-11.4,6.124-15.059,2.551.682,6.616,1.69,10.73,2.39a27.816,27.816,0,0,0,4.622.454c2.9,0,5.019-.735,6.49-2.248a7.951,7.951,0,0,0,1.987-6.005c-.1-3.708-3.688-7.986-7.03-11.184C115.9,53.348,120.729,49.007,121.844,38.207ZM34.33,64.007A7.777,7.777,0,0,1,37.3,57.878a2.908,2.908,0,0,1,3.719.09l7.268,6.353a2.908,2.908,0,0,1,.586,3.673A7.817,7.817,0,0,1,34.33,64.007Zm14.779,48a4.477,4.477,0,0,1-1.63.306c-2.669,0-5-2.32-5.8-5.773-.92-3.967.463-7.644,3.287-8.741A4.474,4.474,0,0,1,46.6,97.5c2.669,0,5,2.32,5.8,5.773C53.316,107.237,51.934,110.913,49.109,112.01Zm31.3-5.466c-.8,3.452-3.131,5.773-5.8,5.773h0a4.5,4.5,0,0,1-1.63-.307c-2.824-1.1-4.206-4.773-3.287-8.741.8-3.452,3.131-5.773,5.8-5.773a4.5,4.5,0,0,1,1.63.306C79.943,98.9,81.325,102.576,80.406,106.544ZM79.85,71.827a7.857,7.857,0,0,1-6.721-3.832,2.907,2.907,0,0,1,.586-3.673l7.268-6.353a2.908,2.908,0,0,1,3.719-.09A7.817,7.817,0,0,1,79.85,71.827Z" transform="translate(3 -11.83)"/></g></g></svg>