<svg xmlns="http://www.w3.org/2000/svg" xmlns:xlink="http://www.w3.org/1999/xlink" width="284.292" height="255.194" viewBox="0 0 284.292 255.194">
  <defs>
    <filter id="Ellipse_24" x="38.735" y="0" width="245.557" height="245.557" filterUnits="userSpaceOnUse">
      <feOffset input="SourceAlpha"/>
      <feGaussianBlur stdDeviation="36" result="blur"/>
      <feFlood flood-color="#f3ec37"/>
      <feComposite operator="in" in2="blur"/>
      <feComposite in="SourceGraphic"/>
    </filter>
  </defs>
  <g id="Groupe_101" data-name="Groupe 101" transform="translate(-128.351 -64.772)">
    <g id="eiffel-tower" transform="translate(128.351 159.969)" style="isolation: isolate">
      <g id="Groupe_21" data-name="Groupe 21">
        <g id="Groupe_20" data-name="Groupe 20">
          <path id="Tracé_50" data-name="Tracé 50" d="M206.888,82.6a2.723,2.723,0,0,0,.581.064,2.664,2.664,0,0,0,2.6-2.088c.211-.952,4.965-22.618,5.357-43.245h2.707V80a2.667,2.667,0,0,0,5.333,0V34.666A2.668,2.668,0,0,0,220.8,32h-6.253a25.017,25.017,0,0,1-1.688-6.709l7.942-5.957,7.944,5.957a26.4,26.4,0,0,1-2.331,8.186,2.669,2.669,0,0,0-.28,1.189c0,21.378,5.176,44.919,5.4,45.911a2.666,2.666,0,0,0,2.6,2.088,2.705,2.705,0,0,0,.581-.064,2.67,2.67,0,0,0,2.027-3.181c-.053-.235-5.173-23.509-5.269-44.165A29.752,29.752,0,0,0,234.133,24a2.662,2.662,0,0,0-1.067-2.133l-9.6-7.2v-12a2.667,2.667,0,1,0-5.333,0v12l-9.6,7.2A2.661,2.661,0,0,0,207.467,24a29.467,29.467,0,0,0,2.659,11.232c-.093,20.645-5.208,43.954-5.261,44.189A2.666,2.666,0,0,0,206.888,82.6Z" transform="translate(-140.801)" fill="#05482f"/>
          <path id="Tracé_51" data-name="Tracé 51" d="M173.334,278.4h4.677a105.69,105.69,0,0,1-7.061,20.141,2.666,2.666,0,1,0,4.77,2.384,108.9,108.9,0,0,0,7.768-22.525h5.186l-4.611,20.754a2.666,2.666,0,0,0,2.024,3.181,2.723,2.723,0,0,0,.581.064,2.664,2.664,0,0,0,2.6-2.088l4.869-21.911h6.386l4.872,21.911A2.666,2.666,0,0,0,208,302.4a2.7,2.7,0,0,0,.581-.064,2.67,2.67,0,0,0,2.027-3.181L205.991,278.4h5.184a108.707,108.707,0,0,0,7.773,22.525,2.664,2.664,0,0,0,2.387,1.475,2.628,2.628,0,0,0,1.187-.283,2.665,2.665,0,0,0,1.2-3.576,105.765,105.765,0,0,1-7.064-20.141h4.678a2.667,2.667,0,0,0,0-5.333h-48a2.667,2.667,0,1,0,0,5.333Z" transform="translate(-117.334 -187.735)" fill="#05482f"/>
          <path id="Tracé_52" data-name="Tracé 52" d="M157.331,412.8H126.787a206.823,206.823,0,0,1-16.226-32h4.1a2.667,2.667,0,1,0,0-5.333H45.333a2.667,2.667,0,1,0,0,5.333h4.1a207.288,207.288,0,0,1-16.226,32H2.667a2.667,2.667,0,0,0,0,5.333H157.33a2.667,2.667,0,0,0,0-5.333Zm-98.665,0a21.333,21.333,0,0,1,42.666,0Zm48,0a26.666,26.666,0,0,0-53.332,0H39.482a211.73,211.73,0,0,0,15.677-32h49.682a211.53,211.53,0,0,0,15.674,32Z" transform="translate(0 -258.136)" fill="#05482f"/>
        </g>
      </g>
    </g>
    <g transform="matrix(1, 0, 0, 1, 128.35, 64.77)" filter="url(#Ellipse_24)">
      <ellipse id="Ellipse_24-2" data-name="Ellipse 24" cx="14.778" cy="14.778" rx="14.778" ry="14.778" transform="translate(146.74 108)" fill="#f3ec37"/>
    </g>
    <path id="Rectangle_69" data-name="Rectangle 69" d="M4.84,0H34.086a4.893,4.893,0,0,1,1.891.379A4.984,4.984,0,0,1,38.6,2.945a4.843,4.843,0,0,1,.416,1.875,4.7,4.7,0,0,1-2.866,4.435,4.782,4.782,0,0,1-1.873.378H5.081a4.907,4.907,0,0,1-1.89-.378A5.02,5.02,0,0,1,.553,6.7,4.859,4.859,0,0,1,.125,4.821,4.72,4.72,0,0,1,.457,2.945,4.673,4.673,0,0,1,2.966.379,4.768,4.768,0,0,1,4.84,0Z" transform="translate(151.089 216.2)" fill="#e59215" opacity="0.64"/>
    <path id="Rectangle_66" data-name="Rectangle 66" d="M3.85,0H36.117a3.9,3.9,0,0,1,1.5.3,3.958,3.958,0,0,1,2.087,2.036,3.833,3.833,0,0,1,.331,1.488,3.735,3.735,0,0,1-2.281,3.519,3.813,3.813,0,0,1-1.491.3H4.043a3.913,3.913,0,0,1-1.5-.3A3.99,3.99,0,0,1,.44,5.311,3.847,3.847,0,0,1,.1,3.824,3.736,3.736,0,0,1,.363,2.336,3.711,3.711,0,0,1,2.359.3,3.8,3.8,0,0,1,3.85,0Z" transform="translate(198.786 176.401)" fill="#e59215" opacity="0.64"/>
    <path id="Rectangle_67" data-name="Rectangle 67" d="M2.885,0H31.252A2.883,2.883,0,0,1,33.91,1.751a2.856,2.856,0,0,1,0,2.23,2.886,2.886,0,0,1-2.657,1.748H2.912A2.9,2.9,0,0,1,.247,3.981,2.852,2.852,0,0,1,1.763.225,2.884,2.884,0,0,1,2.885,0Z" transform="translate(207.648 210.528)" fill="#e59215" opacity="0.64"/>
    <path id="Rectangle_70" data-name="Rectangle 70" d="M2.866,0H25.424a2.928,2.928,0,0,1,1.12.222,2.959,2.959,0,0,1,.924.605,2.913,2.913,0,0,1,.633.9,2.817,2.817,0,0,1,.249,1.1,2.733,2.733,0,0,1-.8,2,2.787,2.787,0,0,1-.9.6,2.856,2.856,0,0,1-1.11.222H3.012a2.934,2.934,0,0,1-1.12-.222,2.975,2.975,0,0,1-.926-.6,2.929,2.929,0,0,1-.637-.9,2.824,2.824,0,0,1-.254-1.1,2.723,2.723,0,0,1,.787-2,2.771,2.771,0,0,1,.9-.605A2.849,2.849,0,0,1,2.866,0Z" transform="translate(300.588 191.797)" fill="#e59215" opacity="0.64"/>
    <path id="Rectangle_68" data-name="Rectangle 68" d="M2.425,0H29.872A2.42,2.42,0,0,1,32.1,1.472a2.4,2.4,0,0,1,0,1.876,2.429,2.429,0,0,1-2.236,1.471H2.441A2.435,2.435,0,0,1,.2,3.348,2.393,2.393,0,0,1,.713.706,2.416,2.416,0,0,1,2.425,0Z" transform="translate(285.941 181.94)" fill="#e59215" opacity="0.64"/>
    <path id="Rectangle_71" data-name="Rectangle 71" d="M2.1,0H21.384a2.129,2.129,0,0,1,1.948,1.27,2.07,2.07,0,0,1,.174.809,2.038,2.038,0,0,1-.6,1.469,2.068,2.068,0,0,1-.661.445,2.093,2.093,0,0,1-.814.163H2.161A2.138,2.138,0,0,1,.21,2.888a2.074,2.074,0,0,1-.177-.809A2.043,2.043,0,0,1,1.284.163,2.089,2.089,0,0,1,2.1,0Z" transform="translate(139.495 190.39)" fill="#e59215" opacity="0.64"/>
  </g>
</svg>
