<svg xmlns="http://www.w3.org/2000/svg" width="46.333" height="46.333" viewBox="0 0 46.333 46.333"><path d="M38.044,0H8.289A8.3,8.3,0,0,0,0,8.289V38.044a8.3,8.3,0,0,0,8.289,8.289H38.044a8.3,8.3,0,0,0,8.289-8.289V8.289A8.3,8.3,0,0,0,38.044,0Zm5.574,38.044a5.58,5.58,0,0,1-5.574,5.574H8.289a5.58,5.58,0,0,1-5.574-5.574V8.289A5.58,5.58,0,0,1,8.289,2.715H38.044a5.58,5.58,0,0,1,5.574,5.574Z" fill="#208e00"/><path d="M97.611,83.242H76.937a4.264,4.264,0,0,0-8.085,0H65.624a1.357,1.357,0,1,0,0,2.715h3.227a4.264,4.264,0,0,0,8.085,0H97.611a1.357,1.357,0,1,0,0-2.715ZM72.894,86.15a1.55,1.55,0,1,1,1.55-1.55A1.552,1.552,0,0,1,72.894,86.15Z" transform="translate(-58.451 -73.064)" fill="#208e00"/><path d="M97.611,211.775H94.384a4.264,4.264,0,0,0-8.085,0H65.624a1.357,1.357,0,1,0,0,2.715H86.3a4.264,4.264,0,0,0,8.085,0h3.227a1.357,1.357,0,1,0,0-2.715Zm-7.27,2.908a1.55,1.55,0,1,1,1.55-1.55A1.552,1.552,0,0,1,90.341,214.683Z" transform="translate(-58.451 -189.966)" fill="#208e00"/><path d="M97.611,340.308H82.752a4.264,4.264,0,0,0-8.085,0H65.624a1.357,1.357,0,1,0,0,2.715h9.043a4.264,4.264,0,0,0,8.085,0H97.611a1.357,1.357,0,1,0,0-2.715Zm-18.9,2.908a1.55,1.55,0,1,1,1.55-1.551A1.552,1.552,0,0,1,78.71,343.216Z" transform="translate(-58.451 -306.867)" fill="#208e00"/></svg>